<svg id="Brand_with_subline" xmlns="http://www.w3.org/2000/svg" width="190.17" height="60" viewBox="0 0 190.17 60">
  <path id="Pfad_1" data-name="Pfad 1" d="M417.39,300.19a.391.391,0,0,1-.387.269h-1.087c-.179,0-.253-.059-.269-.269l-.222-4.554a12.935,12.935,0,0,1,.044-1.533,12.665,12.665,0,0,1-.476,1.533l-1.817,4.554a.389.389,0,0,1-.387.269h-1.1c-.179,0-.253-.059-.268-.269l-.387-6.549a.3.3,0,0,1,.3-.357h.654c.194,0,.283.074.283.3l.149,4.674a14.24,14.24,0,0,1-.074,1.592c.164-.491.3-1.072.506-1.578l1.875-4.7a.41.41,0,0,1,.4-.284h.863a.294.294,0,0,1,.313.3l.282,4.688a13.933,13.933,0,0,1-.029,1.578c.15-.491.3-1.072.476-1.578l1.682-4.7a.41.41,0,0,1,.4-.284h.7c.208,0,.239.179.178.343Z" transform="translate(-312.959 -243.466)" fill="#757474"/>
  <path id="Pfad_2" data-name="Pfad 2" d="M421.41,297.645c.015,1.132.4,1.847,1.415,1.847a4.058,4.058,0,0,0,1.443-.312.265.265,0,0,1,.372.207l.073.4a.364.364,0,0,1-.267.371,3.734,3.734,0,0,1-1.785.374c-1.623,0-2.472-1.043-2.472-2.919,0-2.083,1.131-4.405,3.247-4.405a1.9,1.9,0,0,1,2.157,1.965c0,1.964-1.846,2.44-4.183,2.469m2-3.482c-.789,0-1.668.967-1.935,2.56,2.276-.1,2.931-.626,2.931-1.578a.9.9,0,0,0-1-.983" transform="translate(-312.86 -243.467)" fill="#757474"/>
  <path id="Pfad_3" data-name="Pfad 3" d="M431.139,300.2a.4.4,0,0,1-.373.3h-.535a.249.249,0,0,1-.253-.3l1.741-9.943a.4.4,0,0,1,.372-.3h.537a.25.25,0,0,1,.254.3Z" transform="translate(-312.754 -243.502)" fill="#757474"/>
  <path id="Pfad_4" data-name="Pfad 4" d="M435.818,300.536c-1.5,0-2.38-1.058-2.38-2.934,0-2.1,1.114-4.392,3.378-4.392,1.488,0,2.382,1,2.382,2.934,0,2.158-1.116,4.392-3.38,4.392m.893-6.328c-1.413,0-2.037,2.054-2.037,3.409,0,1.325.385,1.935,1.248,1.935,1.384,0,2.04-2.068,2.04-3.407,0-1.295-.387-1.936-1.252-1.936" transform="translate(-312.716 -243.467)" fill="#757474"/>
  <path id="Pfad_5" data-name="Pfad 5" d="M442.754,300.19a.4.4,0,0,1-.387.269h-.985c-.176,0-.236-.059-.266-.269l-.774-6.519a.317.317,0,0,1,.3-.387h.642a.3.3,0,0,1,.313.3l.386,4.971a12.32,12.32,0,0,1,.015,1.295,13.124,13.124,0,0,1,.4-1.295l2.114-4.985a.41.41,0,0,1,.4-.284h.7c.223,0,.253.179.179.343Z" transform="translate(-312.642 -243.466)" fill="#757474"/>
  <path id="Pfad_6" data-name="Pfad 6" d="M447.126,297.645c.015,1.132.4,1.847,1.414,1.847a4.059,4.059,0,0,0,1.444-.312.264.264,0,0,1,.371.207l.075.4a.365.365,0,0,1-.268.371,3.732,3.732,0,0,1-1.786.374c-1.621,0-2.47-1.043-2.47-2.919,0-2.083,1.131-4.405,3.246-4.405a1.9,1.9,0,0,1,2.157,1.965c0,1.964-1.846,2.44-4.183,2.469m1.994-3.482c-.788,0-1.667.967-1.935,2.56,2.277-.1,2.933-.626,2.933-1.578a.9.9,0,0,0-1-.983" transform="translate(-312.581 -243.467)" fill="#757474"/>
  <path id="Pfad_7" data-name="Pfad 7" d="M459.132,293.946a.348.348,0,0,1-.312.313H457.9l-.834,4.733a1.584,1.584,0,0,0-.012.223c0,.283.117.357.357.357a3.661,3.661,0,0,0,.5-.088.243.243,0,0,1,.282.238l.045.312c.03.178-.074.3-.3.387a3.128,3.128,0,0,1-.908.134,1.057,1.057,0,0,1-1.159-1.16,2.077,2.077,0,0,1,.028-.4l.834-4.733h-.744a.261.261,0,0,1-.253-.313l.06-.328a.35.35,0,0,1,.327-.312h.774l.267-1.5a.427.427,0,0,1,.284-.328l.58-.194c.15-.059.357-.088.357.105v.06l-.328,1.86h.894a.238.238,0,0,1,.239.312Z" transform="translate(-312.475 -243.488)" fill="#757474"/>
  <path id="Pfad_8" data-name="Pfad 8" d="M461.786,300.536c-1.5,0-2.382-1.058-2.382-2.934,0-2.1,1.115-4.392,3.379-4.392,1.488,0,2.382,1,2.382,2.934,0,2.158-1.117,4.392-3.379,4.392m.893-6.328c-1.414,0-2.04,2.054-2.04,3.409,0,1.325.387,1.935,1.251,1.935,1.383,0,2.039-2.068,2.039-3.407,0-1.295-.387-1.936-1.25-1.936" transform="translate(-312.435 -243.467)" fill="#757474"/>
  <path id="Pfad_9" data-name="Pfad 9" d="M474.611,298.941l-.253,1.7c-.312,2.115-1.192,2.829-2.77,2.829a4.171,4.171,0,0,1-2.232-.611.28.28,0,0,1-.119-.373l.209-.476a.294.294,0,0,1,.387-.194,4.151,4.151,0,0,0,1.726.6c1.026,0,1.444-.611,1.638-1.757l.343-1.95c-.433.983-1.087,1.682-1.922,1.682-.938,0-1.845-.594-1.845-2.336,0-2.189,1.028-4.838,3.32-4.838a1.586,1.586,0,0,1,1.28.536l.046-.194a.318.318,0,0,1,.327-.267h.551a.231.231,0,0,1,.253.3Zm-1.444-4.749c-1.385,0-2.129,2.2-2.129,3.84,0,.909.239,1.371.744,1.371,1.013,0,1.967-1.921,2.339-4.139l.1-.625a1.755,1.755,0,0,0-1.057-.447" transform="translate(-312.329 -243.467)" fill="#757474"/>
  <path id="Pfad_10" data-name="Pfad 10" d="M480.973,294.327c-.075.209-.165.387-.387.283a1.053,1.053,0,0,0-.491-.164c-.626,0-1.594,2.218-1.951,4.272l-.253,1.444a.335.335,0,0,1-.327.3h-.611a.242.242,0,0,1-.252-.3l1.145-6.578a.335.335,0,0,1,.327-.3h.6a.245.245,0,0,1,.268.3l-.239,1.235c.505-1.339,1.071-1.608,1.667-1.608.284,0,.714.134.714.448a.4.4,0,0,1-.029.133Z" transform="translate(-312.248 -243.467)" fill="#757474"/>
  <path id="Pfad_11" data-name="Pfad 11" d="M483.514,300.536c-1.505,0-2.383-1.058-2.383-2.934,0-2.1,1.117-4.392,3.379-4.392,1.489,0,2.381,1,2.381,2.934,0,2.158-1.117,4.392-3.378,4.392m.893-6.328c-1.414,0-2.04,2.054-2.04,3.409,0,1.325.387,1.935,1.25,1.935,1.384,0,2.039-2.068,2.039-3.407,0-1.295-.387-1.936-1.249-1.936" transform="translate(-312.2 -243.467)" fill="#757474"/>
  <path id="Pfad_12" data-name="Pfad 12" d="M494.465,300.19a.39.39,0,0,1-.387.269h-1.087c-.18,0-.254-.059-.269-.269l-.222-4.554a12.961,12.961,0,0,1,.044-1.533,12.3,12.3,0,0,1-.477,1.533l-1.815,4.554a.391.391,0,0,1-.387.269h-1.1c-.178,0-.254-.059-.266-.269l-.388-6.549a.3.3,0,0,1,.3-.357h.654c.194,0,.283.074.283.3l.15,4.674a13.97,13.97,0,0,1-.075,1.592c.165-.491.3-1.072.506-1.578l1.876-4.7a.408.408,0,0,1,.4-.284h.862a.294.294,0,0,1,.314.3l.282,4.688a13.933,13.933,0,0,1-.029,1.578c.148-.491.3-1.072.476-1.578l1.683-4.7a.407.407,0,0,1,.4-.284h.7c.207,0,.238.179.178.343Z" transform="translate(-312.124 -243.466)" fill="#757474"/>
  <path id="Pfad_13" data-name="Pfad 13" d="M461.2,255.574a11.574,11.574,0,1,1,11.574,11.573A11.573,11.573,0,0,1,461.2,255.574" transform="translate(-312.416 -244)" fill="#d9000d"/>
  <path id="Pfad_14" data-name="Pfad 14" d="M314.01,278.964v-1.839a67.461,67.461,0,0,0,7.985.475c4.056,0,5.007-.538,5.007-1.679a1.173,1.173,0,0,0-.76-1.2,18.417,18.417,0,0,0-3.961-.633c-2.694-.285-4.88-.634-6.147-1.521a3.7,3.7,0,0,1-1.87-3.581c0-4.055,3.74-5.386,10.266-5.386a56.075,56.075,0,0,1,7.48.569V266a63.931,63.931,0,0,0-6.94-.412c-3.486,0-4.311.507-4.311,1.519a1.167,1.167,0,0,0,.7,1.2,12.3,12.3,0,0,0,3.929.665,18.909,18.909,0,0,1,5.988,1.236,3.7,3.7,0,0,1,2.155,3.771c0,4.151-3.8,5.639-11.439,5.639a62.07,62.07,0,0,1-8.08-.664" transform="translate(-314.01 -243.788)" fill="#161615"/>
  <path id="Pfad_15" data-name="Pfad 15" d="M336.781,271.581c0-5.8,5.134-8.143,10.964-8.143,6.75,0,10.616,2.472,10.616,7.795a9.219,9.219,0,0,1-.159,1.553H344.165c.1,3.96,1.519,4.753,5.957,4.753a71.651,71.651,0,0,0,7.382-.38V279a51.817,51.817,0,0,1-8.271.633c-7.224,0-12.452-1.615-12.452-8.048m7.384-.76h7.255c-.063-4.182-.919-5.292-3.675-5.292-2.5,0-3.517,1.078-3.579,5.292" transform="translate(-313.763 -243.789)" fill="#161615"/>
  <rect id="Rechteck_1" data-name="Rechteck 1" width="7.637" height="21.765" transform="translate(49.216 13.855)" fill="#161615"/>
  <path id="Pfad_16" data-name="Pfad 16" d="M374.53,271.581c0-5.8,5.134-8.143,10.964-8.143,6.749,0,10.615,2.472,10.615,7.795a9.225,9.225,0,0,1-.158,1.553H381.914c.1,3.96,1.52,4.753,5.957,4.753a71.62,71.62,0,0,0,7.382-.38V279a51.813,51.813,0,0,1-8.27.633c-7.223,0-12.453-1.615-12.453-8.048m7.384-.76h7.257c-.064-4.182-.92-5.292-3.676-5.292-2.5,0-3.518,1.078-3.58,5.292" transform="translate(-313.354 -243.789)" fill="#161615"/>
  <path id="Pfad_17" data-name="Pfad 17" d="M399.466,271.611c0-5.734,4.561-8.047,11.628-8.047a42.2,42.2,0,0,1,7.353.6V266a39.078,39.078,0,0,0-5.134-.38c-3.833,0-6.179.823-6.179,5.924s2.409,5.989,6.179,5.989a39.612,39.612,0,0,0,5.166-.349v1.839a42.559,42.559,0,0,1-7.385.6c-7.127,0-11.628-2.344-11.628-8.017" transform="translate(-313.084 -243.788)" fill="#161615"/>
  <path id="Pfad_18" data-name="Pfad 18" d="M420.847,263.848H423.7v-6.142h7.637v6.142h4.657v1.934h-4.657v9.412c0,1.964.76,2.375,2.724,2.375a12.07,12.07,0,0,0,1.966-.19v1.838a31.4,31.4,0,0,1-5.547.475c-4.4,0-6.78-1.045-6.78-5.2v-8.713h-2.851Z" transform="translate(-312.853 -243.852)" fill="#161615"/>
  <path id="Pfad_19" data-name="Pfad 19" d="M438.951,274.875c0-3.454,2.724-4.943,8.461-4.943h5.164v-1.078c0-2.85-1.491-3.232-5.228-3.232a53.384,53.384,0,0,0-5.735.381v-1.839a61.005,61.005,0,0,1,7.89-.6c7.413,0,10.362,1.553,10.362,5.673v10.171h-7.288v-1.013a15.137,15.137,0,0,1-6.306,1.33c-4.69,0-7.319-1.774-7.319-4.849m13.625,2.219v-5.451H449.66c-2.409,0-3.358.634-3.358,2.915s1.046,2.915,3.232,2.915a10.969,10.969,0,0,0,3.043-.379" transform="translate(-312.657 -243.788)" fill="#161615"/>
  <path id="Pfad_20" data-name="Pfad 20" d="M462.376,255.7c0-1.388.986-2.312,3.262-2.312,2.258,0,3.289.924,3.289,2.312s-.994,2.3-3.289,2.3-3.262-.878-3.262-2.3m4.373,0c0-1.317-.286-1.72-1.1-1.72s-1.1.4-1.1,1.72.278,1.731,1.1,1.731,1.1-.423,1.1-1.731" transform="translate(-312.403 -243.898)" fill="#fff"/>
  <path id="Pfad_21" data-name="Pfad 21" d="M469.788,253.484h2.09v.457a3.583,3.583,0,0,1,2.026-.555c1.333,0,2.257.43,2.257,1.748V257.9H474v-2.76c0-.717-.313-.968-1.057-.968a3.837,3.837,0,0,0-.994.144V257.9h-2.162Z" transform="translate(-312.323 -243.898)" fill="#fff"/>
  <path id="Pfad_22" data-name="Pfad 22" d="M477,255.69c0-1.642,1.454-2.3,3.1-2.3,1.909,0,3,.7,3,2.206a2.555,2.555,0,0,1-.044.439h-3.97c.026,1.121.431,1.345,1.685,1.345a20.341,20.341,0,0,0,2.087-.108v.52a14.561,14.561,0,0,1-2.337.18c-2.044,0-3.526-.459-3.526-2.276m2.09-.215h2.052c-.017-1.183-.26-1.5-1.04-1.5-.706,0-1,.3-1.012,1.5" transform="translate(-312.244 -243.898)" fill="#fff"/>
  <path id="Pfad_23" data-name="Pfad 23" d="M500.226,294.432a2.085,2.085,0,1,1,1.958-2.08,1.964,1.964,0,0,1-1.958,2.08m0-3.769a1.7,1.7,0,1,0,1.5,1.689,1.542,1.542,0,0,0-1.5-1.689m.759,2.841h-.208a.1.1,0,0,1-.092-.044c-.055-.1-.1-.178-.165-.294a3.665,3.665,0,0,0-.405-.582.17.17,0,0,0-.133-.066h-.073v.862a.115.115,0,0,1-.11.116h-.142a.12.12,0,0,1-.116-.116v-2.086a.115.115,0,0,1,.116-.11h.587c.521,0,.771.3.771.642a.589.589,0,0,1-.6.637,3.244,3.244,0,0,1,.649.912.083.083,0,0,1-.08.129m-.851-2.027h-.225v.741h.219c.4,0,.508-.116.508-.385s-.184-.356-.5-.356" transform="translate(-312.014 -243.499)" fill="#757474"/>
</svg>
