 <svg xmlns="http://www.w3.org/2000/svg" width="42" height="42" viewBox="0 0 742 742">
	<g id="Gruppe_1" data-name="Gruppe 1" transform="translate(-129 -45)">
	<circle id="Ellipse_2" data-name="Ellipse 2" cx="371" cy="371" r="371" transform="translate(129 45)"/>
	<g id="noun_cart_1832887" transform="translate(232.387 227.946)">
		<path id="Pfad_2" data-name="Pfad 2" d="M18.175,273.461c-19.7-.6-23,27.934-3.687,31.851L50.066,313.1C68.886,403.134,89.4,492.8,109.294,582.6A16.089,16.089,0,0,0,125,595.2H407.521c21.766.323,21.766-32.5,0-32.176h-269.6L130.8,530.859h290.98a16.09,16.09,0,0,0,15.71-12.6l35.63-160.86a16.09,16.09,0,0,0-15.7-19.565q-184.635,0-369.268-.06L79.4,296.282a16.088,16.088,0,0,0-12.3-12.4L21.361,273.868a15.875,15.875,0,0,0-3.184-.407ZM191.969,605.935a42.9,42.9,0,1,0,42.9,42.9A43.148,43.148,0,0,0,191.969,605.935Zm150.145,0a42.9,42.9,0,1,0,42.9,42.9,43.148,43.148,0,0,0-42.9-42.9Z" transform="translate(11.005 -270.542)" fill="#fff"/>
	</g>
	</g>
</svg>