<svg xmlns="http://www.w3.org/2000/svg" width="42" height="42" viewBox="0 0 42 42">
	<path id="xing" d="M6507.977,2944.815a21,21,0,1,0,21,21A21,21,0,0,0,6507.977,2944.815Zm-6.758,26.166h-3.666a.8.8,0,0,1-.525-.21.668.668,0,0,1,0-.629l3.876-7.016-2.512-4.4a.668.668,0,0,1,0-.629.8.8,0,0,1,.525-.21h3.769a1.332,1.332,0,0,1,1.049.732l2.617,4.506c-.208.21-4.084,7.122-4.084,7.122A1.325,1.325,0,0,1,6501.219,2970.981Zm17.7-17.39-8.275,14.668,5.238,9.637a.665.665,0,0,1,0,.629.81.81,0,0,1-.524.21h-3.771a1.326,1.326,0,0,1-1.047-.734l-5.346-9.743c.317-.418,8.383-14.77,8.383-14.77a1.141,1.141,0,0,1,1.048-.732h3.771v0a.8.8,0,0,1,.523.211A.665.665,0,0,1,6518.924,2953.592Z" transform="translate(-6486.978 -2944.815)"/>
</svg>