<svg id="Component_131_1" data-name="Component 131 – 1" xmlns="http://www.w3.org/2000/svg" width="42" height="42" viewBox="0 0 42 42">
	<path id="Path_6175" data-name="Path 6175" d="M-7363.72,2030.76l6-3.5-6-3.5Z" transform="translate(7382.72 -2006.26)" fill="#040405"/>
	<path id="Path_6176" data-name="Path 6176" d="M-7361.72,2006.26a21,21,0,0,0-21,21,21,21,0,0,0,21,21,21,21,0,0,0,21-21A21,21,0,0,0-7361.72,2006.26Zm9.543,26.5a2.812,2.812,0,0,1-1.938,2.022c-1.709.476-7.6.476-7.6.476s-5.893,0-7.6-.476a2.811,2.811,0,0,1-1.938-2.022,31.055,31.055,0,0,1-.457-5.5,31.055,31.055,0,0,1,.457-5.5,2.812,2.812,0,0,1,1.938-2.022c1.712-.476,7.6-.476,7.6-.476s5.9,0,7.6.476a2.813,2.813,0,0,1,1.938,2.022,31.088,31.088,0,0,1,.457,5.5A31.088,31.088,0,0,1-7352.177,2032.762Z" transform="translate(7382.72 -2006.26)" fill="#040405"/>
</svg>